<svg width="331" height="332" viewBox="0 0 331 332" fill="none" xmlns="http://www.w3.org/2000/svg">
<mask id="mask0_1_140" style="mask-type:luminance" maskUnits="userSpaceOnUse" x="0" y="0" width="331" height="332">
<path d="M0 331.104V0H331V331.104H0Z" fill="#73BBA3"/>
</mask>
<g mask="url(#mask0_1_140)">
<path fill-rule="evenodd" clip-rule="evenodd" d="M331 165.448C331 256.937 256.833 331.104 165.345 331.104C73.8564 331.104 -0.310547 256.937 -0.310547 165.448C-0.310547 73.96 73.8564 -0.207031 165.345 -0.207031C256.833 -0.207031 331 73.96 331 165.448Z" fill="#2F2F2F"/>
</g>
<path fill-rule="evenodd" clip-rule="evenodd" d="M258.324 248.276C249.316 248.276 239.719 243.674 232.642 237.415C214.782 221.621 212.971 205.821 165.345 205.821C117.719 205.821 115.907 221.621 98.0472 237.415C90.9706 243.674 81.3729 248.276 72.3654 248.276C58.6368 248.276 46.2799 237.596 46.2799 205.821C46.2799 153.2 70.0929 121.586 70.0929 121.586C70.0929 121.586 81.8647 101.443 100.025 101.443C107.122 101.443 115.203 104.523 123.931 113.086C134.993 123.936 150.172 129.361 165.345 129.361C180.523 129.361 195.696 123.936 206.758 113.086C215.486 104.523 223.562 101.443 230.665 101.443C248.825 101.443 260.596 121.586 260.596 121.586C260.596 121.586 284.409 153.2 284.409 205.821C284.409 237.596 272.053 248.276 258.324 248.276Z" fill="#2F2F2F"/>
<path fill-rule="evenodd" clip-rule="evenodd" d="M165.345 190.291C212.971 190.291 214.782 206.091 232.642 221.885C250.502 237.679 284.409 242.918 284.409 190.291C284.409 137.67 260.596 106.055 260.596 106.055C260.596 106.055 237.819 67.0903 206.758 97.5553C184.633 119.256 146.056 119.256 123.931 97.5553C92.8705 67.0903 70.0929 106.055 70.0929 106.055C70.0929 106.055 46.2799 137.67 46.2799 190.291C46.2799 242.918 80.1875 237.679 98.0472 221.885C115.907 206.091 117.719 190.291 165.345 190.291Z" fill="#F97A05"/>
<path fill-rule="evenodd" clip-rule="evenodd" d="M237.819 175.802C237.85 177.181 237.605 178.552 237.099 179.835C236.593 181.118 235.836 182.286 234.872 183.273C233.908 184.259 232.757 185.043 231.486 185.578C230.215 186.113 228.85 186.389 227.471 186.389C226.092 186.39 224.726 186.114 223.455 185.58C222.184 185.045 221.032 184.262 220.068 183.276C219.103 182.291 218.345 181.122 217.839 179.839C217.332 178.557 217.087 177.186 217.117 175.807C217.177 173.102 218.293 170.528 220.228 168.635C222.162 166.743 224.76 165.683 227.465 165.682C230.171 165.682 232.77 166.74 234.705 168.632C236.64 170.523 237.758 173.097 237.819 175.802Z" fill="#DEDECA"/>
<path fill-rule="evenodd" clip-rule="evenodd" d="M258.526 149.918C258.557 151.297 258.312 152.668 257.806 153.951C257.3 155.234 256.543 156.403 255.579 157.389C254.615 158.375 253.464 159.159 252.193 159.694C250.922 160.229 249.557 160.505 248.178 160.505C246.798 160.506 245.433 160.231 244.162 159.696C242.891 159.162 241.739 158.378 240.774 157.393C239.81 156.407 239.052 155.238 238.546 153.956C238.039 152.673 237.794 151.302 237.824 149.923C237.884 147.218 239 144.644 240.934 142.751C242.869 140.859 245.467 139.799 248.172 139.799C250.878 139.798 253.477 140.857 255.412 142.748C257.347 144.639 258.465 147.213 258.526 149.918Z" fill="#DEDECA"/>
<path fill-rule="evenodd" clip-rule="evenodd" d="M98.0473 183.541C98.0473 187.843 94.5685 191.332 90.2822 191.332C85.9959 191.332 82.5171 187.843 82.5171 183.541V147.355C82.5171 143.054 85.9959 139.564 90.2822 139.564C94.5685 139.564 98.0473 143.054 98.0473 147.355V183.541Z" fill="#DEDECA"/>
<path fill-rule="evenodd" clip-rule="evenodd" d="M72.1895 173.213C70.1269 173.216 68.1475 172.4 66.6866 170.944C65.2257 169.487 64.4027 167.511 64.3986 165.448C64.3986 161.162 67.8877 157.683 72.1895 157.683H108.375C112.677 157.683 116.166 161.162 116.166 165.448C116.166 169.735 112.677 173.213 108.375 173.213H72.1895Z" fill="#DEDECA"/>
</svg>
