<svg width="86" height="102" viewBox="0 0 86 102" fill="none" xmlns="http://www.w3.org/2000/svg">
<ellipse cx="43" cy="59.5" rx="43" ry="42.5" fill="#F97A05"/>
<path d="M50.9307 65.1507H49.3551L48.7967 64.5334C51.1899 61.3326 52.4264 56.9658 51.7484 52.3246C50.811 45.9687 46.1841 40.8931 40.5999 40.1157C32.1638 38.9269 25.0639 47.0661 26.101 56.7371C26.779 63.1388 31.2065 68.443 36.7508 69.5176C40.7994 70.2949 44.6086 68.8774 47.4007 66.1338L47.9391 66.774V68.5802L56.4151 78.297C57.2328 79.2343 58.5691 79.2343 59.3867 78.297C60.2044 77.3596 60.2044 75.8278 59.3867 74.8904L50.9307 65.1507ZM38.9645 65.1507C33.9986 65.1507 29.99 60.5553 29.99 54.8624C29.99 49.1695 33.9986 44.574 38.9645 44.574C43.9305 44.574 47.9391 49.1695 47.9391 54.8624C47.9391 60.5553 43.9305 65.1507 38.9645 65.1507Z" fill="white"/>
</svg>
