<svg width="109" height="100" viewBox="0 0 109 100" fill="none" xmlns="http://www.w3.org/2000/svg">
<rect width="109" height="100" rx="40" fill="#373737"/>
<path d="M54.9296 52.8308C62.0381 52.8308 67.739 47.0277 67.739 39.9508C67.739 32.8738 62.0381 27 54.9296 27C47.8211 27 42.1202 32.8031 42.1202 39.88C42.1202 46.9569 47.8211 52.8308 54.9296 52.8308ZM54.9296 30.3969C60.1378 30.3969 64.3607 34.6431 64.3607 39.88C64.3607 45.1169 60.1378 49.3631 54.9296 49.3631C49.7214 49.3631 45.4985 45.1877 45.4985 39.9508C45.4985 34.7138 49.7214 30.3969 54.9296 30.3969ZM32.6891 73H77.3109C78.2258 73 79 72.2215 79 71.3015C79 62.3846 71.7507 55.0954 62.8827 55.0954H47.1173C38.2493 55.0954 31 62.3846 31 71.3015C31 72.2215 31.7742 73 32.6891 73ZM47.1173 58.4923H62.8827C69.3578 58.4923 74.6364 63.3046 75.4809 69.6031H34.5191C35.3636 63.3046 40.6422 58.4923 47.1173 58.4923Z" fill="#6184FF"/>
</svg>
