<svg width="78" height="78" viewBox="0 0 78 78" fill="none" xmlns="http://www.w3.org/2000/svg">
<path d="M63.375 63.375H14.625V14.625H50.583L53.625 9.74998H14.625C13.3321 9.74998 12.0921 10.2636 11.1779 11.1778C10.2636 12.0921 9.75 13.332 9.75 14.625V63.375C9.75 64.6679 10.2636 65.9079 11.1779 66.8221C12.0921 67.7364 13.3321 68.25 14.625 68.25H63.375C64.6679 68.25 65.9079 67.7364 66.8221 66.8221C67.7364 65.9079 68.25 64.6679 68.25 63.375V31.1854L63.375 39V63.375ZM71.5796 5.43073C71.2051 5.18498 70.7857 5.01562 70.3455 4.93235C69.9053 4.84908 69.453 4.85354 69.0146 4.94549C68.5762 5.03744 68.1602 5.21505 67.7906 5.46815C67.4209 5.72124 67.1049 6.04483 66.8606 6.42035L40.3601 44.6501L30.108 32.9501C29.7813 32.6346 29.3949 32.3874 28.9715 32.2231C28.5481 32.0588 28.0961 31.9807 27.6421 31.9934C27.1881 32.0061 26.7412 32.1092 26.3275 32.2968C25.9139 32.4844 25.5419 32.7527 25.2333 33.086C24.9247 33.4192 24.6858 33.8107 24.5304 34.2375C24.3751 34.6643 24.3066 35.1179 24.3288 35.5715C24.351 36.0251 24.4635 36.4698 24.6598 36.8794C24.8561 37.289 25.1322 37.6552 25.4719 37.9567L37.7959 52.0211C37.8739 52.1479 37.9958 52.2454 38.0933 52.3624L38.4052 52.7182C38.4442 52.7524 38.493 52.7621 38.532 52.7962C38.6295 52.8742 38.688 52.9815 38.7904 53.0546C39 53.1911 39.2291 53.2789 39.4583 53.3617C39.5119 53.3812 39.5557 53.4154 39.6094 53.43C39.9506 53.5421 40.3065 53.6104 40.6575 53.6104C40.6721 53.6104 40.6868 53.6006 40.7014 53.6006C41.6276 53.6055 42.549 53.2642 43.2266 52.533C43.3534 52.3965 43.4021 52.2307 43.5045 52.0796L43.5191 52.065L72.5692 10.1546C72.8145 9.77946 72.9834 9.35969 73.0664 8.91925C73.1494 8.47882 73.1448 8.02635 73.0529 7.58768C72.961 7.14902 72.7836 6.73276 72.5308 6.36266C72.278 5.99257 71.9548 5.6759 71.5796 5.43073Z" fill="#F97A05"/>
</svg>
