<svg width="72" height="69" viewBox="0 0 72 69" fill="none" xmlns="http://www.w3.org/2000/svg">
<path d="M71.8745 26.7692C71.6577 26.1152 71.2554 25.5379 70.7164 25.1075C70.1774 24.677 69.5248 24.4119 68.8378 24.3443L48.5786 21.1261L39.722 2.60322C39.4378 1.99755 38.9883 1.48403 38.4251 1.12149C37.8619 0.758956 37.2078 0.56206 36.5377 0.55336C35.8675 0.544661 35.2085 0.72451 34.6361 1.07231C34.0636 1.4201 33.6009 1.92178 33.301 2.51987L23.965 20.7709L3.62839 23.4978C2.96696 23.5828 2.34266 23.8512 1.82634 24.2725C1.31003 24.6937 0.92237 25.251 0.707366 25.881C0.510046 26.4968 0.484485 27.1546 0.633425 27.7838C0.782365 28.413 1.10018 28.9899 1.55278 29.4525L16.0999 43.8834L12.2691 64.0574C12.1163 64.7263 12.1605 65.425 12.3962 66.0694C12.632 66.7139 13.0493 67.2766 13.598 67.69C14.1466 68.1033 14.8033 68.3497 15.489 68.3994C16.1746 68.4491 16.8601 68.3 17.4628 67.9702L35.7797 58.7014L53.8488 68.4425C54.3458 68.7309 54.9093 68.8854 55.4842 68.891C56.2398 68.9035 56.9798 68.6762 57.5977 68.2419C58.1563 67.8535 58.5918 67.3136 58.8529 66.6861C59.114 66.0586 59.1896 65.3696 59.071 64.7005L55.7673 44.4339L70.6857 30.3855C71.2064 29.9568 71.5945 29.3894 71.805 28.7492C72.0154 28.1091 72.0395 27.4225 71.8745 26.7692ZM49.7503 40.7241C49.3322 41.1189 49.016 41.6088 48.8288 42.152C48.6415 42.6951 48.5888 43.2755 48.675 43.8434L51.0485 58.8284L37.7284 51.5344C37.2105 51.2703 36.6385 51.129 36.0569 51.1214C35.4753 51.1139 34.8999 51.2403 34.3752 51.4909L20.8695 58.4366L23.6329 43.5183C23.7338 42.9528 23.6962 42.3713 23.5232 41.8235C23.3502 41.2756 23.0469 40.7777 22.6392 40.3722L12.0766 29.5535L27.1231 27.5769C27.702 27.5042 28.2542 27.2909 28.7314 26.9556C29.2085 26.6204 29.5959 26.1735 29.8597 25.6541L36.3862 12.1733L42.9154 25.8592C43.1656 26.3853 43.5412 26.8421 44.0094 27.1896C44.4777 27.5371 45.0241 27.7647 45.601 27.8524L60.5908 30.2189L49.7503 40.7241Z" fill="#F97A05"/>
</svg>
