<svg width="68" height="71" viewBox="0 0 68 71" fill="none" xmlns="http://www.w3.org/2000/svg">
<path d="M66.8829 64.1927L54.0426 50.8529C58.1854 45.3534 60.4333 38.5623 60.425 31.5711C60.425 25.3448 58.653 19.2584 55.3333 14.0815C52.0135 8.90451 47.2949 4.86958 41.7743 2.4869C36.2537 0.104216 30.179 -0.519202 24.3183 0.695479C18.4577 1.91016 13.0743 4.90839 8.84905 9.31101C4.62375 13.7136 1.74629 19.3229 0.580538 25.4295C-0.585217 31.5361 0.0130905 37.8658 2.2998 43.6181C4.58651 49.3704 8.45892 54.287 13.4273 57.7461C18.3958 61.2052 24.237 63.0516 30.2125 63.0516C36.9221 63.0602 43.4397 60.718 48.7176 56.4013L61.5202 69.7805C61.8713 70.1493 62.289 70.4421 62.7492 70.6419C63.2094 70.8416 63.703 70.9445 64.2015 70.9445C64.7001 70.9445 65.1937 70.8416 65.6539 70.6419C66.1141 70.4421 66.5318 70.1493 66.8829 69.7805C67.2369 69.4147 67.5178 68.9795 67.7096 68.4999C67.9013 68.0204 68 67.5061 68 66.9866C68 66.4671 67.9013 65.9528 67.7096 65.4733C67.5178 64.9938 67.2369 64.5585 66.8829 64.1927ZM7.55313 31.5711C7.55313 26.9014 8.88208 22.3366 11.3719 18.4539C13.8618 14.5712 17.4007 11.545 21.5411 9.75794C25.6816 7.97093 30.2376 7.50337 34.6331 8.41438C39.0286 9.32539 43.0661 11.5741 46.2351 14.876C49.4041 18.178 51.5622 22.385 52.4365 26.9649C53.3108 31.5449 52.8621 36.2921 51.147 40.6064C49.432 44.9206 46.5277 48.608 42.8014 51.2024C39.0751 53.7967 34.6941 55.1814 30.2125 55.1814C24.2029 55.1814 18.4394 52.6939 14.1899 48.2661C9.94045 43.8383 7.55313 37.8329 7.55313 31.5711Z" fill="#F97A05"/>
</svg>
